<svg width="70" height="49" viewBox="0 0 70 49" fill="none" xmlns="http://www.w3.org/2000/svg">
<path d="M20.999 35.6902C21.6925 33.2443 22.1874 30.7926 22.0119 28.2431C22.0004 28.0849 22.0234 27.918 21.9888 27.7655C21.4248 25.167 22.6766 23.4261 24.6937 22.0506C26.8059 20.609 29.2287 19.8752 31.62 19.081C34.3249 18.1804 36.9262 17.0524 39.3117 15.4783C40.6209 14.6151 41.8756 13.6885 42.7388 12.3159C42.7762 13.7345 42.3331 14.9863 41.513 16.2207C42.1345 16.12 42.4942 15.7402 43.0151 15.4582C42.8885 17.1818 41.677 18.117 40.6555 19.2048C41.2569 19.3515 41.7144 18.9976 42.2295 18.9228C41.5993 21.3514 38.3851 24.6606 34.017 27.3885C34.0429 27.6216 34.2932 27.5899 34.417 27.7079C34.6702 27.9467 34.7709 28.0705 34.3306 28.2316C33.2055 28.6402 32.7422 29.5466 32.5725 30.6746C32.2415 32.8587 31.7351 35.0025 30.7855 37.0081C30.2474 38.1476 29.5999 39.2238 28.282 39.6411C28.1813 39.6727 28.0777 39.6929 27.9713 39.7044C27.8936 39.713 27.813 39.6929 27.6461 39.6785C30.6071 37.975 30.4977 35.0428 30.7682 32.2832C30.9035 30.902 30.7567 29.515 30.6416 28.1367C30.5956 27.587 30.7452 27.3712 31.2833 27.1899C33.5767 26.4188 35.6975 25.3426 37.2859 23.4347C37.7664 22.8564 38.1117 22.206 38.3851 21.5068C38.5175 21.1672 38.5635 20.9687 38.0772 20.9744C34.417 21.0032 30.7884 21.2536 27.2979 22.4708C26.6764 22.6866 26.0692 22.983 25.4994 23.3168C24.1643 24.0995 23.3355 25.1872 23.2291 26.8274C23.0938 28.9424 22.996 31.0804 22.2996 33.1148C21.986 34.0299 21.6292 34.9277 20.9961 35.6931" fill="#93AE08"/>
<path d="M35.7143 0C22.3625 0 11.54 10.8224 11.54 24.1742C11.54 24.3181 11.5429 24.4591 11.5458 24.6001C11.7731 12.267 21.8416 2.33657 34.2295 2.33657C46.6173 2.33657 56.9189 12.4943 56.9189 25.026C56.9189 37.5577 46.7612 47.7154 34.2295 47.7154C32.6267 47.8133 26.909 47.5658 23.6401 45.7386C27.2946 47.96 31.5649 48.5729 35.7143 48.3456C49.0632 48.3456 59.8885 37.5232 59.8885 24.1742C59.8885 10.8253 49.0661 0 35.7143 0Z" fill="#93AE08"/>
<path d="M69.6727 37.4021C54.157 45.2233 51.4434 31.4744 35.9277 37.782C48.9227 35.008 55.4806 51.1539 69.6727 37.4021Z" fill="#59AADD"/>
<path d="M32.1667 47.8967C17.0682 45.4019 12.5706 35.4312 12.8526 35.0024C12.8526 35.0024 14.1245 33.3191 15.3762 34.1535C15.3762 34.1535 18.8753 36.3664 20.1932 35.9146C20.1932 35.9146 16.4639 35.1204 11.2872 29.5178C7.11189 24.8418 0.476272 30.9796 8.61684 32.522C9.02546 32.7263 10.9966 33.273 11.7764 35.4571C13.9576 39.9518 21.5974 47.9658 32.9925 48.3427C33.6946 48.3111 32.6472 48.1873 32.1667 47.8938M6.53062 29.7192C6.37524 29.7192 6.2515 29.5926 6.2515 29.4401C6.2515 29.2876 6.37811 29.161 6.53062 29.161C6.68313 29.161 6.80975 29.2876 6.80975 29.4401C6.80975 29.5926 6.68313 29.7192 6.53062 29.7192Z" fill="#93AE08"/>
<path d="M4.5106 29.7191C4.51348 29.8802 4.45305 30.7665 5.34509 31.5233C4.00991 32.165 0.418732 31.6355 0.00148811 31.9406C-0.0963484 30.7291 4.66311 29.7018 4.5106 29.7162" fill="#93AE08"/>
<path d="M33.2256 38.7058C42.0769 35.9463 48.3845 49.4419 59.4343 37.6354C47.0349 44.4379 44.6581 33.1205 33.2256 38.7058Z" fill="white"/>
<path d="M35.418 38.1217C44.3384 38.0411 48.2144 46.9672 57.5233 38.936C47.2274 43.3703 45.2966 35.1894 35.418 38.1217Z" fill="#1D66AE"/>
</svg>
